<svg width="154" height="203" viewBox="0 0 154 203" fill="none" xmlns="http://www.w3.org/2000/svg">
<g opacity="0.2">
<circle cx="4" cy="4" r="4" fill="#0056D6"/>
<circle cx="33" cy="4" r="4" fill="#0056D6"/>
<circle cx="62" cy="4" r="4" fill="#0056D6"/>
<circle cx="91" cy="4" r="4" fill="#0056D6"/>
<circle cx="121" cy="4" r="4" fill="#0056D6"/>
<circle cx="150" cy="4" r="4" fill="#0056D6"/>
<circle cx="4" cy="43" r="4" fill="#0056D6"/>
<circle cx="33" cy="43" r="4" fill="#0056D6"/>
<circle cx="62" cy="43" r="4" fill="#0056D6"/>
<circle cx="91" cy="43" r="4" fill="#0056D6"/>
<circle cx="121" cy="43" r="4" fill="#0056D6"/>
<circle cx="150" cy="43" r="4" fill="#0056D6"/>
<circle cx="4" cy="82" r="4" fill="#0056D6"/>
<circle cx="33" cy="82" r="4" fill="#0056D6"/>
<circle cx="62" cy="82" r="4" fill="#0056D6"/>
<circle cx="91" cy="82" r="4" fill="#0056D6"/>
<circle cx="121" cy="82" r="4" fill="#0056D6"/>
<circle cx="150" cy="82" r="4" fill="#0056D6"/>
<circle cx="4" cy="121" r="4" fill="#0056D6"/>
<circle cx="33" cy="121" r="4" fill="#0056D6"/>
<circle cx="62" cy="121" r="4" fill="#0056D6"/>
<circle cx="91" cy="121" r="4" fill="#0056D6"/>
<circle cx="121" cy="121" r="4" fill="#0056D6"/>
<circle cx="150" cy="121" r="4" fill="#0056D6"/>
<circle cx="4" cy="160" r="4" fill="#0056D6"/>
<circle cx="33" cy="160" r="4" fill="#0056D6"/>
<circle cx="62" cy="160" r="4" fill="#0056D6"/>
<circle cx="91" cy="160" r="4" fill="#0056D6"/>
<circle cx="121" cy="160" r="4" fill="#0056D6"/>
<circle cx="150" cy="160" r="4" fill="#0056D6"/>
<circle cx="4" cy="199" r="4" fill="#0056D6"/>
<circle cx="33" cy="199" r="4" fill="#0056D6"/>
<circle cx="62" cy="199" r="4" fill="#0056D6"/>
<circle cx="91" cy="199" r="4" fill="#0056D6"/>
<circle cx="121" cy="199" r="4" fill="#0056D6"/>
<circle cx="150" cy="199" r="4" fill="#0056D6"/>
</g>
</svg>
